<svg id="_x35_0" enable-background="new 0 0 512 512" height="512" viewBox="0 0 512 512" width="512" xmlns="http://www.w3.org/2000/svg"><g><circle cx="256" cy="256" fill="#78c795" r="256"/><g><g><g><path d="m163.486 249.223h144.793l-65.876-141.033c-8.617-18.448-27.137-30.239-47.499-30.239h-78.044c-15.548 0-25.83 16.152-19.25 30.239z" fill="#50755c"/><g fill="#528f66"><path d="m196.86 249.223h-33.375l-65.875-141.033c-6.58-14.087 3.703-30.239 19.25-30.239z"/><path d="m308.279 249.223h-33.375l-80-171.272c20.362 0 38.882 11.79 47.499 30.239z"/></g></g><g><path d="m348.517 249.223h-144.793l65.876-141.033c8.617-18.448 27.137-30.239 47.499-30.239h78.044c15.548 0 25.83 16.152 19.25 30.239z" fill="#528f66"/><g fill="#53b976"><path d="m315.143 249.223h33.375l65.876-141.033c6.58-14.087-3.703-30.239-19.25-30.239z"/><path d="m203.724 249.223h33.375l80-171.272c-20.362 0-38.882 11.79-47.499 30.239z"/></g></g></g><g><g><g><circle cx="256" cy="332.121" fill="#f9c744" r="124.228"/><path d="m256 456.349c68.609 0 124.228-55.619 124.228-124.228s-55.619-124.227-124.228-124.227z" fill="#fad98f"/></g><g><g><path d="m256 437.823c-58.284 0-105.702-47.417-105.702-105.702s47.418-105.702 105.702-105.702 105.702 47.418 105.702 105.702-47.418 105.702-105.702 105.702zm0-204.404c-54.424 0-98.702 44.278-98.702 98.702s44.278 98.702 98.702 98.702 98.702-44.277 98.702-98.702-44.278-98.702-98.702-98.702z" fill="#ea792e"/></g><g><path d="m256 437.823v-7c54.424 0 98.702-44.277 98.702-98.702s-44.278-98.702-98.702-98.702v-7c58.284 0 105.702 47.418 105.702 105.702s-47.418 105.702-105.702 105.702z" fill="#f39e22"/></g></g><g><circle cx="256" cy="332.121" fill="#ea792e" r="82.898"/><path d="m256 415.019c45.783 0 82.898-37.115 82.898-82.898s-37.115-82.898-82.898-82.898z" fill="#f39e22"/></g></g><g><path d="m287.58 372.08h-44.89c7.215-7.659 22.135-23.559 29.41-31.28 7.03-7.48 12.02-14.25 14.96-20.31 12.083-26.338-.668-50.947-31.06-52.04-7.759-.379-15.324.764-23 3.42-6.68 2.32-12.52 5.47-17.5 9.43-2.688 2.279-3.9 4.481-3.92 7.99-.155 5.799 4.845 11.29 10.54 8.42 1.14-.51 2.27-1.16 3.4-1.96 4.42-3.06 8.82-5.46 13.18-7.22 8.163-3.231 19.804-4.461 26.61 1.61 3.06 2.84 4.59 6.92 4.59 12.24-.267 10.863-5.839 18.393-13.78 27.37-.069.203-38.659 41.46-38.75 41.65-4.263 4.272-5.553 11.323-1.37 15.73 1.71 1.76 4.03 2.63 6.98 2.63h64.6c6.8 0 10.19-3 10.19-9.01 0-5.78-3.39-8.67-10.19-8.67z" fill="#f4e6f4"/><g fill="#fff"><path d="m291.48 301.02c.57 23.674-20.207 39.912-35.48 56.9v-28.04c4.781-5.197 8.367-10.112 10.58-14.49 6.134-11.72 4.466-27.599-10.58-29.27v-17.67c19.796.661 35.659 12.306 35.48 32.57z"/><path d="m297.77 380.75c0 6.01-3.39 9.01-10.19 9.01h-31.58v-17.68h31.58c6.8 0 10.19 2.89 10.19 8.67z"/></g></g></g></g><g><path d="m407.484 279.945h-10.57c-7.352 0-13.312-5.96-13.312-13.312v-10.57c0-3.193-2.588-5.781-5.781-5.781-3.193 0-5.781 2.588-5.781 5.781v10.57c0 7.352-5.96 13.312-13.312 13.312h-10.57c-3.193 0-5.781 2.588-5.781 5.781 0 3.193 2.588 5.781 5.781 5.781h10.57c7.352 0 13.312 5.96 13.312 13.312v10.57c0 3.193 2.588 5.781 5.781 5.781 3.193 0 5.781-2.588 5.781-5.781v-10.57c0-7.352 5.96-13.312 13.312-13.312h10.57c3.193 0 5.781-2.588 5.781-5.781 0-3.193-2.588-5.781-5.781-5.781z" fill="#fff"/><g fill="#c3ead0"><path d="m442.58 335.489h-8.125c-5.652 0-10.233-4.582-10.233-10.233v-8.125c0-2.454-1.99-4.444-4.444-4.444-2.454 0-4.444 1.99-4.444 4.444v8.125c0 5.652-4.582 10.233-10.233 10.233h-8.125c-2.454 0-4.444 1.99-4.444 4.444 0 2.454 1.99 4.444 4.444 4.444h8.125c5.652 0 10.233 4.582 10.233 10.233v8.125c0 2.454 1.99 4.444 4.444 4.444 2.454 0 4.444-1.99 4.444-4.444v-8.125c0-5.652 4.582-10.233 10.233-10.233h8.125c2.454 0 4.444-1.99 4.444-4.444 0-2.454-1.99-4.444-4.444-4.444z"/><path d="m108.033 220.638h-10.57c-7.352 0-13.312-5.96-13.312-13.312v-10.57c0-3.193-2.588-5.781-5.781-5.781-3.193 0-5.781 2.588-5.781 5.781v10.57c0 7.352-5.96 13.312-13.312 13.312h-10.57c-3.193 0-5.781 2.588-5.781 5.781 0 3.193 2.588 5.781 5.781 5.781h10.57c7.352 0 13.312 5.96 13.312 13.312v10.57c0 3.193 2.588 5.781 5.781 5.781 3.193 0 5.781-2.588 5.781-5.781v-10.57c0-7.352 5.96-13.312 13.312-13.312h10.57c3.193 0 5.781-2.588 5.781-5.781 0-3.192-2.589-5.781-5.781-5.781z"/></g></g></g></svg>