<svg id="_x35_0" enable-background="new 0 0 512 512" height="512" viewBox="0 0 512 512" width="512" xmlns="http://www.w3.org/2000/svg"><g><circle cx="256" cy="256" fill="#fb8408" r="256"/><g><g><g><path d="m163.486 249.223h144.793l-65.876-141.033c-8.617-18.448-27.137-30.239-47.499-30.239h-78.044c-15.548 0-25.83 16.152-19.25 30.239z" fill="#c0405c"/><g fill="#e9465e"><path d="m196.86 249.223h-33.375l-65.875-141.033c-6.58-14.087 3.703-30.239 19.25-30.239z"/><path d="m308.279 249.223h-33.375l-80-171.272c20.362 0 38.882 11.79 47.499 30.239z"/></g></g><g><path d="m348.517 249.223h-144.793l65.876-141.033c8.617-18.448 27.137-30.239 47.499-30.239h78.044c15.548 0 25.83 16.152 19.25 30.239z" fill="#e9465e"/><g fill="#ee6781"><path d="m315.143 249.223h33.375l65.876-141.033c6.58-14.087-3.703-30.239-19.25-30.239z"/><path d="m203.724 249.223h33.375l80-171.272c-20.362 0-38.882 11.79-47.499 30.239z"/></g></g></g><g><g><g><circle cx="256" cy="332.121" fill="#f9c744" r="124.228"/><path d="m256 456.349c68.609 0 124.228-55.619 124.228-124.228s-55.619-124.227-124.228-124.227z" fill="#fad98f"/></g><g><g><path d="m256 437.823c-58.284 0-105.702-47.417-105.702-105.702s47.418-105.702 105.702-105.702 105.702 47.418 105.702 105.702-47.418 105.702-105.702 105.702zm0-204.404c-54.424 0-98.702 44.278-98.702 98.702s44.278 98.702 98.702 98.702 98.702-44.277 98.702-98.702-44.278-98.702-98.702-98.702z" fill="#ea792e"/></g><g><path d="m256 437.823v-7c54.424 0 98.702-44.277 98.702-98.702s-44.278-98.702-98.702-98.702v-7c58.284 0 105.702 47.418 105.702 105.702s-47.418 105.702-105.702 105.702z" fill="#f39e22"/></g></g><g><circle cx="256" cy="332.121" fill="#ea792e" r="82.898"/><path d="m256 415.019c45.783 0 82.898-37.115 82.898-82.898s-37.115-82.898-82.898-82.898z" fill="#f39e22"/></g></g><g><path d="m288.17 372.08h-17.85v-92.14c0-3.4-.96-6.06-2.89-7.99-4.517-4.519-12.113-3.146-17.34.17 0 0-26.35 16.32-26.35 16.32-2.95 1.82-4.42 4.37-4.42 7.65-.12 4.571 3.632 10.01 8.5 9.86 1.25 0 2.66-.45 4.25-1.36l16.32-10.03v77.52h-17.68c-6.91 0-10.37 2.89-10.37 8.67 0 6.01 3.46 9.01 10.37 9.01h57.46c6.8 0 10.2-3 10.2-9.01 0-5.78-3.4-8.67-10.2-8.67z" fill="#f4e6f4"/><path d="m298.37 380.75c0 6.01-3.4 9.01-10.2 9.01h-32.17v-120.2c7.471-2.085 14.59 2.121 14.32 10.38v92.14h17.85c6.8 0 10.2 2.89 10.2 8.67z" fill="#fff"/></g></g></g><g><path d="m407.484 279.945h-10.57c-7.352 0-13.312-5.96-13.312-13.312v-10.57c0-3.193-2.588-5.781-5.781-5.781-3.193 0-5.781 2.588-5.781 5.781v10.57c0 7.352-5.96 13.312-13.312 13.312h-10.57c-3.193 0-5.781 2.588-5.781 5.781 0 3.193 2.588 5.781 5.781 5.781h10.57c7.352 0 13.312 5.96 13.312 13.312v10.57c0 3.193 2.588 5.781 5.781 5.781 3.193 0 5.781-2.588 5.781-5.781v-10.57c0-7.352 5.96-13.312 13.312-13.312h10.57c3.193 0 5.781-2.588 5.781-5.781 0-3.193-2.588-5.781-5.781-5.781z" fill="#fff"/><g fill="#ffccd7"><path d="m442.58 335.489h-8.125c-5.652 0-10.233-4.582-10.233-10.233v-8.125c0-2.454-1.99-4.444-4.444-4.444-2.454 0-4.444 1.99-4.444 4.444v8.125c0 5.652-4.582 10.233-10.233 10.233h-8.125c-2.454 0-4.444 1.99-4.444 4.444 0 2.454 1.99 4.444 4.444 4.444h8.125c5.652 0 10.233 4.582 10.233 10.233v8.125c0 2.454 1.99 4.444 4.444 4.444 2.454 0 4.444-1.99 4.444-4.444v-8.125c0-5.652 4.582-10.233 10.233-10.233h8.125c2.454 0 4.444-1.99 4.444-4.444 0-2.454-1.99-4.444-4.444-4.444z"/><path d="m108.033 220.638h-10.57c-7.352 0-13.312-5.96-13.312-13.312v-10.57c0-3.193-2.588-5.781-5.781-5.781-3.193 0-5.781 2.588-5.781 5.781v10.57c0 7.352-5.96 13.312-13.312 13.312h-10.57c-3.193 0-5.781 2.588-5.781 5.781 0 3.193 2.588 5.781 5.781 5.781h10.57c7.352 0 13.312 5.96 13.312 13.312v10.57c0 3.193 2.588 5.781 5.781 5.781 3.193 0 5.781-2.588 5.781-5.781v-10.57c0-7.352 5.96-13.312 13.312-13.312h10.57c3.193 0 5.781-2.588 5.781-5.781 0-3.192-2.589-5.781-5.781-5.781z"/></g></g></g></svg>